<svg width="74" height="59" viewBox="0 0 74 59" fill="none" xmlns="http://www.w3.org/2000/svg">
<path d="M11.8526 56.273C11.2646 56.273 10.9706 55.93 10.9706 55.244V44.282H6.93855C6.46255 44.282 6.14405 44.3415 5.98305 44.4605C5.82205 44.5725 5.74155 44.8 5.74155 45.143V53.207C5.74155 53.893 5.64355 54.453 5.44755 54.887C5.25855 55.314 4.95405 55.629 4.53405 55.832C4.12105 56.028 3.57855 56.126 2.90655 56.126C2.17855 56.126 1.81455 55.832 1.81455 55.244C1.81455 54.656 2.17855 54.362 2.90655 54.362C3.24255 54.362 3.46305 54.3095 3.56805 54.2045C3.67305 54.0925 3.72555 53.865 3.72555 53.522V45.437C3.72555 44.695 3.82005 44.114 4.00905 43.694C4.19805 43.267 4.51305 42.966 4.95405 42.791C5.40205 42.609 6.01455 42.518 6.79155 42.518H12.7346V55.244C12.7346 55.93 12.4406 56.273 11.8526 56.273ZM18.1575 56.273C17.5835 56.273 17.2965 55.937 17.2965 55.265V43.4C17.2965 42.714 17.5905 42.371 18.1785 42.371C18.7665 42.371 19.0605 42.735 19.0605 43.463V53.1335L26.3895 42.9065C26.6555 42.5495 26.9565 42.371 27.2925 42.371C27.8525 42.371 28.1325 42.714 28.1325 43.4V55.265C28.1325 55.937 27.8385 56.273 27.2505 56.273C26.6625 56.273 26.3685 55.958 26.3685 55.328V45.5315L19.1235 55.6955C18.9555 55.9335 18.8085 56.0875 18.6825 56.1575C18.5635 56.2345 18.3885 56.273 18.1575 56.273ZM32.0569 58.058C31.4689 58.058 31.1749 57.701 31.1749 56.987V56C31.1749 55.503 31.2939 55.1285 31.5319 54.8765C31.7699 54.6175 32.1199 54.481 32.5819 54.467C32.7499 54.11 32.9249 53.599 33.1069 52.934C33.2959 52.269 33.4779 51.5095 33.6529 50.6555C33.8349 49.7945 33.9959 48.8915 34.1359 47.9465C34.2829 47.0015 34.3984 46.0635 34.4824 45.1325C34.5664 44.1945 34.6049 43.323 34.5979 42.518H41.9269V54.488C42.3399 54.516 42.6514 54.656 42.8614 54.908C43.0784 55.16 43.1869 55.524 43.1869 56V56.987C43.1869 57.701 42.8929 58.058 42.3049 58.058C41.7169 58.058 41.4229 57.701 41.4229 56.987V56.126H32.9389V56.987C32.9389 57.701 32.6449 58.058 32.0569 58.058ZM34.5244 54.362H40.1629V44.282H36.5089C36.4879 44.905 36.4319 45.5875 36.3409 46.3295C36.2569 47.0645 36.1484 47.817 36.0154 48.587C35.8824 49.357 35.7319 50.106 35.5639 50.834C35.4029 51.555 35.2314 52.22 35.0494 52.829C34.8744 53.438 34.6994 53.949 34.5244 54.362ZM47.6858 56.126C47.1258 56.126 46.8458 55.776 46.8458 55.076V43.568C46.8458 42.868 47.1258 42.518 47.6858 42.518H56.6318C57.3318 42.518 57.6818 42.826 57.6818 43.442C57.6818 44.002 57.3318 44.282 56.6318 44.282H48.6098V47.6H54.0488C54.8328 47.6 55.2248 47.908 55.2248 48.524C55.2248 49.084 54.8328 49.364 54.0488 49.364H48.6098V54.362H56.6318C57.3318 54.362 57.6818 54.67 57.6818 55.286C57.6818 55.846 57.3318 56.126 56.6318 56.126H47.6858ZM62.3384 56.273C61.7504 56.273 61.4564 55.951 61.4564 55.307V43.463C61.4564 42.763 61.7364 42.413 62.2964 42.413H66.3074C68.1134 42.413 69.4154 42.6755 70.2134 43.2005C71.0114 43.7255 71.4104 44.583 71.4104 45.773C71.4104 46.928 71.0604 47.817 70.3604 48.44C69.6674 49.056 68.6524 49.364 67.3154 49.364H63.2204V55.307C63.2204 55.951 62.9264 56.273 62.3384 56.273ZM63.2204 47.6H66.3074C67.0774 47.6 67.7074 47.5685 68.1974 47.5055C68.6944 47.4425 69.0584 47.2885 69.2894 47.0435C69.5274 46.7915 69.6464 46.389 69.6464 45.836C69.6464 45.388 69.5519 45.045 69.3629 44.807C69.1809 44.569 68.8484 44.4045 68.3654 44.3135C67.8824 44.2225 67.1964 44.177 66.3074 44.177H63.2204V47.6Z" fill="#4E556D"/>
<path d="M10.9706 44.282H11.9706V43.282H10.9706V44.282ZM5.98305 44.4605L6.55412 45.2814L6.5659 45.2732L6.57744 45.2647L5.98305 44.4605ZM5.44755 54.887L4.53616 54.4754L4.53313 54.4823L5.44755 54.887ZM4.53405 55.832L4.96281 56.7354L4.96922 56.7323L4.53405 55.832ZM3.56805 54.2045L4.27516 54.9116L4.28656 54.9002L4.29759 54.8884L3.56805 54.2045ZM4.00905 43.694L4.92099 44.1044L4.92348 44.0987L4.00905 43.694ZM4.95405 42.791L5.32291 43.7205L5.33043 43.7175L4.95405 42.791ZM12.7346 42.518H13.7346V41.518H12.7346V42.518ZM11.8526 55.273C11.8005 55.273 11.7995 55.2652 11.8291 55.2767C11.8445 55.2827 11.8654 55.2929 11.8885 55.3091C11.9119 55.3254 11.9328 55.3446 11.9503 55.365C11.9862 55.4069 11.9916 55.4349 11.9872 55.4195C11.982 55.4012 11.9706 55.3473 11.9706 55.244H9.97055C9.97055 55.7067 10.0664 56.2403 10.4318 56.6665C10.8225 57.1223 11.3607 57.273 11.8526 57.273V55.273ZM11.9706 55.244V44.282H9.97055V55.244H11.9706ZM10.9706 43.282H6.93855V45.282H10.9706V43.282ZM6.93855 43.282C6.66474 43.282 6.39981 43.2987 6.15904 43.3436C5.93261 43.3859 5.64339 43.468 5.38866 43.6563L6.57744 45.2647C6.52499 45.3034 6.48691 45.3178 6.48221 45.3196C6.47654 45.3217 6.48888 45.3166 6.52631 45.3096C6.60405 45.2951 6.73637 45.282 6.93855 45.282V43.282ZM5.41199 43.6396C4.83182 44.0432 4.74155 44.7134 4.74155 45.143H6.74155C6.74155 45.0412 6.75461 45.0205 6.74465 45.0487C6.73141 45.0861 6.68171 45.1926 6.55412 45.2814L5.41199 43.6396ZM4.74155 45.143V53.207H6.74155V45.143H4.74155ZM4.74155 53.207C4.74155 53.8088 4.65393 54.2147 4.53618 54.4754L6.35892 55.2986C6.63318 54.6913 6.74155 53.9772 6.74155 53.207H4.74155ZM4.53313 54.4823C4.43997 54.6927 4.3052 54.8319 4.09889 54.9317L4.96922 56.7323C5.60291 56.4261 6.07713 55.9353 6.36198 55.2917L4.53313 54.4823ZM4.10531 54.9286C3.87414 55.0383 3.49434 55.126 2.90655 55.126V57.126C3.66277 57.126 4.36797 57.0177 4.9628 56.7354L4.10531 54.9286ZM2.90655 55.126C2.78859 55.126 2.72028 55.1137 2.68878 55.1053C2.65932 55.0973 2.67838 55.0973 2.71589 55.1276C2.73449 55.1426 2.75363 55.162 2.77086 55.1851C2.78803 55.2083 2.79974 55.2304 2.80718 55.2484C2.82176 55.2837 2.81455 55.2896 2.81455 55.244H0.814554C0.814554 55.7554 0.983336 56.2991 1.45922 56.6834C1.89427 57.0348 2.43402 57.126 2.90655 57.126V55.126ZM2.81455 55.244C2.81455 55.1984 2.82176 55.2043 2.80718 55.2396C2.79974 55.2576 2.78803 55.2797 2.77086 55.3029C2.75363 55.326 2.73449 55.3454 2.71589 55.3604C2.67838 55.3907 2.65932 55.3907 2.68878 55.3827C2.72028 55.3743 2.78859 55.362 2.90655 55.362V53.362C2.43402 53.362 1.89427 53.4532 1.45922 53.8046C0.983336 54.1889 0.814554 54.7326 0.814554 55.244H2.81455ZM2.90655 55.362C3.11896 55.362 3.34252 55.3462 3.55555 55.2954C3.7582 55.2472 4.04012 55.1466 4.27516 54.9116L2.86095 53.4974C2.92885 53.4295 2.99326 53.392 3.03209 53.3732C3.05198 53.3636 3.06754 53.3577 3.07721 53.3544C3.08692 53.3511 3.09228 53.3498 3.09231 53.3498C3.09239 53.3498 3.08845 53.3507 3.07986 53.3521C3.07133 53.3534 3.05916 53.355 3.04298 53.3566C3.01011 53.3597 2.96523 53.362 2.90655 53.362V55.362ZM4.29759 54.8884C4.51786 54.6535 4.61368 54.3779 4.66057 54.1747C4.70975 53.9616 4.72555 53.7374 4.72555 53.522H2.72555C2.72555 53.5829 2.72319 53.6303 2.71992 53.666C2.71659 53.7021 2.71282 53.7205 2.71179 53.725C2.71058 53.7302 2.71425 53.7116 2.72982 53.678C2.74549 53.6442 2.77801 53.5851 2.83852 53.5206L4.29759 54.8884ZM4.72555 53.522V45.437H2.72555V53.522H4.72555ZM4.72555 45.437C4.72555 44.7601 4.81482 44.3403 4.92098 44.1044L3.09713 43.2836C2.82528 43.8877 2.72555 44.6299 2.72555 45.437H4.72555ZM4.92348 44.0987C5.00452 43.9157 5.12112 43.8006 5.3229 43.7205L4.58521 41.8615C3.90499 42.1314 3.39159 42.6183 3.09463 43.2893L4.92348 44.0987ZM5.33043 43.7175C5.60836 43.6046 6.07468 43.518 6.79155 43.518V41.518C5.95443 41.518 5.19575 41.6134 4.57768 41.8645L5.33043 43.7175ZM6.79155 43.518H12.7346V41.518H6.79155V43.518ZM11.7346 42.518V55.244H13.7346V42.518H11.7346ZM11.7346 55.244C11.7346 55.3473 11.7231 55.4012 11.7179 55.4195C11.7135 55.4349 11.7189 55.4069 11.7548 55.365C11.7723 55.3446 11.7933 55.3254 11.8166 55.3091C11.8397 55.2929 11.8606 55.2827 11.876 55.2767C11.9056 55.2652 11.9046 55.273 11.8526 55.273V57.273C12.3444 57.273 12.8826 57.1223 13.2733 56.6665C13.6387 56.2403 13.7346 55.7067 13.7346 55.244H11.7346ZM19.0605 53.1335H18.0605V56.2457L19.8733 53.716L19.0605 53.1335ZM26.3895 42.9065L25.5876 42.309L25.5821 42.3165L25.5766 42.324L26.3895 42.9065ZM26.3685 45.5315H27.3685V42.4058L25.5542 44.9511L26.3685 45.5315ZM19.1235 55.6955L18.3092 55.1151L18.3065 55.1188L19.1235 55.6955ZM18.6825 56.1575L18.1968 55.2833L18.1674 55.2997L18.1392 55.3179L18.6825 56.1575ZM18.1575 55.273C18.1093 55.273 18.1118 55.2657 18.1443 55.2784C18.1612 55.285 18.1834 55.2959 18.2076 55.313C18.232 55.3301 18.2539 55.3502 18.2721 55.3715C18.3094 55.4152 18.3158 55.4453 18.3121 55.4322C18.3075 55.4162 18.2965 55.3651 18.2965 55.265H16.2965C16.2965 55.72 16.3903 56.2478 16.7514 56.6705C17.1382 57.1234 17.6715 57.273 18.1575 57.273V55.273ZM18.2965 55.265V43.4H16.2965V55.265H18.2965ZM18.2965 43.4C18.2965 43.2967 18.3079 43.2428 18.3131 43.2245C18.3175 43.2091 18.3121 43.2371 18.2762 43.279C18.2588 43.2994 18.2378 43.3186 18.2145 43.3349C18.1913 43.3511 18.1704 43.3613 18.155 43.3673C18.1255 43.3788 18.1264 43.371 18.1785 43.371V41.371C17.6866 41.371 17.1484 41.5217 16.7577 41.9775C16.3923 42.4037 16.2965 42.9373 16.2965 43.4H18.2965ZM18.1785 43.371C18.2241 43.371 18.2182 43.3782 18.1829 43.3636C18.1648 43.3562 18.1427 43.3445 18.1196 43.3273C18.0964 43.3101 18.0771 43.2909 18.062 43.2723C18.0317 43.2348 18.0318 43.2158 18.0397 43.2452C18.0482 43.2767 18.0605 43.345 18.0605 43.463H20.0605C20.0605 42.9905 19.9693 42.4507 19.6179 42.0157C19.2336 41.5398 18.6899 41.371 18.1785 41.371V43.371ZM18.0605 43.463V53.1335H20.0605V43.463H18.0605ZM19.8733 53.716L27.2023 43.489L25.5766 42.324L18.2476 52.551L19.8733 53.716ZM27.1914 43.504C27.266 43.4037 27.3143 43.3712 27.3248 43.365C27.3292 43.3624 27.3262 43.3648 27.3169 43.3674C27.3073 43.3701 27.2982 43.371 27.2925 43.371V41.371C26.5435 41.371 25.9756 41.7883 25.5876 42.309L27.1914 43.504ZM27.2925 43.371C27.3323 43.371 27.3215 43.3773 27.2819 43.3611C27.2618 43.3529 27.2374 43.3401 27.2121 43.3215C27.1867 43.3028 27.165 43.2817 27.1478 43.2606C27.113 43.218 27.1095 43.1919 27.1151 43.2124C27.1212 43.235 27.1325 43.2933 27.1325 43.4H29.1325C29.1325 42.9466 29.044 42.4208 28.6971 41.9959C28.3185 41.5321 27.7863 41.371 27.2925 41.371V43.371ZM27.1325 43.4V55.265H29.1325V43.4H27.1325ZM27.1325 55.265C27.1325 55.3633 27.1214 55.4123 27.1174 55.426C27.1143 55.4366 27.1216 55.4057 27.1594 55.3625C27.1777 55.3416 27.1992 55.3225 27.2224 55.3065C27.2455 55.2907 27.2659 55.281 27.2804 55.2755C27.3079 55.265 27.3046 55.273 27.2505 55.273V57.273C27.7359 57.273 28.272 57.1281 28.6646 56.6795C29.0348 56.2564 29.1325 55.7248 29.1325 55.265H27.1325ZM27.2505 55.273C27.19 55.273 27.1796 55.2646 27.2009 55.2722C27.2124 55.2763 27.2312 55.2844 27.2538 55.2989C27.2766 55.3136 27.2994 55.3323 27.32 55.3544C27.3634 55.4009 27.3772 55.4402 27.3785 55.4444C27.3785 55.4445 27.3685 55.4109 27.3685 55.328H25.3685C25.3685 55.7806 25.4727 56.3063 25.8579 56.7191C26.2553 57.1448 26.784 57.273 27.2505 57.273V55.273ZM27.3685 55.328V45.5315H25.3685V55.328H27.3685ZM25.5542 44.9511L18.3092 55.1151L19.9378 56.2759L27.1828 46.1119L25.5542 44.9511ZM18.3065 55.1188C18.2413 55.2112 18.1936 55.2678 18.1639 55.299C18.1496 55.314 18.1438 55.3185 18.1466 55.3162C18.149 55.3142 18.1657 55.3006 18.1968 55.2833L19.1681 57.0317C19.502 56.8462 19.7567 56.5325 19.9404 56.2722L18.3065 55.1188ZM18.1392 55.3179C18.1714 55.2971 18.1987 55.2845 18.2171 55.2773C18.2353 55.2701 18.2462 55.2677 18.2471 55.2675C18.2481 55.2673 18.2415 55.2688 18.2258 55.2702C18.2102 55.2717 18.1878 55.273 18.1575 55.273V57.273C18.4714 57.273 18.8724 57.2257 19.2257 56.9971L18.1392 55.3179ZM31.5319 54.8765L32.2589 55.5632L32.2682 55.5531L31.5319 54.8765ZM32.5819 54.467L32.6121 55.4665L33.2254 55.448L33.4867 54.8928L32.5819 54.467ZM33.1069 52.934L32.1449 52.6606L32.1423 52.67L33.1069 52.934ZM33.6529 50.6555L32.6745 50.4487L32.6732 50.4548L33.6529 50.6555ZM34.1359 47.9465L33.1477 47.7928L33.1466 47.8L34.1359 47.9465ZM34.4824 45.1325L35.4783 45.2224L35.4784 45.2217L34.4824 45.1325ZM34.5979 42.518V41.518H33.5891L33.5979 42.5267L34.5979 42.518ZM41.9269 42.518H42.9269V41.518H41.9269V42.518ZM41.9269 54.488H40.9269V55.4225L41.8592 55.4857L41.9269 54.488ZM42.8614 54.908L42.0931 55.5482L42.0983 55.5544L42.1036 55.5605L42.8614 54.908ZM41.4229 56.126H42.4229V55.126H41.4229V56.126ZM32.9389 56.126V55.126H31.9389V56.126H32.9389ZM34.5244 54.362L33.6036 53.9719L33.0146 55.362H34.5244V54.362ZM40.1629 54.362V55.362H41.1629V54.362H40.1629ZM40.1629 44.282H41.1629V43.282H40.1629V44.282ZM36.5089 44.282V43.282H35.542L35.5094 44.2483L36.5089 44.282ZM36.3409 46.3295L35.3483 46.2078L35.3473 46.216L36.3409 46.3295ZM35.5639 50.834L34.5894 50.6091L34.5879 50.6161L35.5639 50.834ZM35.0494 52.829L34.0912 52.5426L34.0882 52.5528L35.0494 52.829ZM32.0569 57.058C32.0091 57.058 32.0127 57.0506 32.0462 57.0641C32.0633 57.0711 32.0851 57.0823 32.1082 57.0992C32.1315 57.1161 32.1514 57.1353 32.1673 57.1545C32.1994 57.1936 32.2011 57.2157 32.1943 57.1908C32.1869 57.1637 32.1749 57.1001 32.1749 56.987H30.1749C30.1749 57.456 30.2675 57.9937 30.6234 58.426C31.01 58.8954 31.552 59.058 32.0569 59.058V57.058ZM32.1749 56.987V56H30.1749V56.987H32.1749ZM32.1749 56C32.1749 55.8284 32.1957 55.7166 32.2171 55.6492C32.2372 55.586 32.2561 55.566 32.2589 55.5631L30.8048 54.1899C30.3281 54.6947 30.1749 55.3581 30.1749 56H32.1749ZM32.2682 55.5531C32.2718 55.5491 32.3312 55.4751 32.6121 55.4665L32.5516 53.4675C31.9085 53.4869 31.2679 53.6859 30.7955 54.1999L32.2682 55.5531ZM33.4867 54.8928C33.6908 54.459 33.8836 53.884 34.0714 53.198L32.1423 52.67C31.9661 53.314 31.8089 53.761 31.677 54.0412L33.4867 54.8928ZM34.0688 53.2074C34.2661 52.5132 34.4537 51.7287 34.6325 50.8562L32.6732 50.4548C32.502 51.2903 32.3256 52.0248 32.1449 52.6606L34.0688 53.2074ZM34.6312 50.8623C34.8178 49.9797 34.9823 49.0566 35.1251 48.093L33.1466 47.8C33.0094 48.7264 32.8519 49.6093 32.6745 50.4487L34.6312 50.8623ZM35.124 48.1002C35.2742 47.1345 35.3923 46.1752 35.4783 45.2224L33.4864 45.0426C33.4044 45.9518 33.2915 46.8685 33.1477 47.7928L35.124 48.1002ZM35.4784 45.2217C35.5648 44.2565 35.6051 43.3519 35.5978 42.5093L33.5979 42.5267C33.6046 43.2941 33.5679 44.1325 33.4863 45.0433L35.4784 45.2217ZM34.5979 43.518H41.9269V41.518H34.5979V43.518ZM40.9269 42.518V54.488H42.9269V42.518H40.9269ZM41.8592 55.4857C41.9718 55.4933 42.0329 55.5138 42.0603 55.5261C42.0834 55.5365 42.0894 55.5437 42.0931 55.5482L43.6296 54.2678C43.2014 53.754 42.6043 53.5316 41.9945 53.4903L41.8592 55.4857ZM42.1036 55.5605C42.1087 55.5665 42.1869 55.6618 42.1869 56H44.1869C44.1869 55.3862 44.048 54.7535 43.6191 54.2555L42.1036 55.5605ZM42.1869 56V56.987H44.1869V56H42.1869ZM42.1869 56.987C42.1869 57.1001 42.1749 57.1637 42.1674 57.1908C42.1606 57.2157 42.1623 57.1936 42.1944 57.1545C42.2103 57.1353 42.2302 57.1161 42.2535 57.0992C42.2766 57.0823 42.2984 57.0711 42.3155 57.0641C42.349 57.0506 42.3526 57.058 42.3049 57.058V59.058C42.8097 59.058 43.3517 58.8954 43.7383 58.426C44.0942 57.9937 44.1869 57.456 44.1869 56.987H42.1869ZM42.3049 57.058C42.2571 57.058 42.2607 57.0506 42.2942 57.0641C42.3113 57.0711 42.3331 57.0823 42.3562 57.0992C42.3795 57.1161 42.3994 57.1353 42.4153 57.1545C42.4474 57.1936 42.4491 57.2157 42.4423 57.1908C42.4349 57.1637 42.4229 57.1001 42.4229 56.987H40.4229C40.4229 57.456 40.5155 57.9937 40.8714 58.426C41.258 58.8954 41.8 59.058 42.3049 59.058V57.058ZM42.4229 56.987V56.126H40.4229V56.987H42.4229ZM41.4229 55.126H32.9389V57.126H41.4229V55.126ZM31.9389 56.126V56.987H33.9389V56.126H31.9389ZM31.9389 56.987C31.9389 57.1001 31.9268 57.1637 31.9194 57.1908C31.9126 57.2157 31.9143 57.1936 31.9464 57.1545C31.9623 57.1353 31.9822 57.1161 32.0055 57.0992C32.0286 57.0823 32.0504 57.0711 32.0675 57.0641C32.101 57.0506 32.1046 57.058 32.0569 57.058V59.058C32.5617 59.058 33.1037 58.8954 33.4903 58.426C33.8462 57.9937 33.9389 57.456 33.9389 56.987H31.9389ZM34.5244 55.362H40.1629V53.362H34.5244V55.362ZM41.1629 54.362V44.282H39.1629V54.362H41.1629ZM40.1629 43.282H36.5089V45.282H40.1629V43.282ZM35.5094 44.2483C35.4896 44.8368 35.4364 45.4895 35.3483 46.2078L37.3334 46.4512C37.4273 45.6855 37.4861 44.9732 37.5083 44.3157L35.5094 44.2483ZM35.3473 46.216C35.2656 46.931 35.1599 47.6646 35.0299 48.4168L37.0008 48.7572C37.1368 47.9694 37.2481 47.198 37.3344 46.443L35.3473 46.216ZM35.0299 48.4168C34.9 49.1693 34.7531 49.9001 34.5895 50.6091L36.5382 51.0589C36.7106 50.3119 36.8647 49.5447 37.0008 48.7572L35.0299 48.4168ZM34.5879 50.6161C34.4312 51.3176 34.2655 51.9595 34.0912 52.5427L36.0075 53.1153C36.1972 52.4805 36.3745 51.7924 36.5398 51.0519L34.5879 50.6161ZM34.0882 52.5528C33.9202 53.1375 33.7579 53.6076 33.6036 53.9719L35.4451 54.7521C35.6408 54.2904 35.8285 53.7385 36.0105 53.1052L34.0882 52.5528ZM48.6098 44.282V43.282H47.6098V44.282H48.6098ZM48.6098 47.6H47.6098V48.6H48.6098V47.6ZM48.6098 49.364V48.364H47.6098V49.364H48.6098ZM48.6098 54.362H47.6098V55.362H48.6098V54.362ZM47.6858 55.126C47.6482 55.126 47.6614 55.12 47.7029 55.1373C47.7239 55.1461 47.7486 55.1594 47.7739 55.1783C47.7992 55.1973 47.8203 55.2184 47.8366 55.2388C47.8695 55.2799 47.8712 55.3029 47.8645 55.2777C47.8573 55.2506 47.8458 55.1876 47.8458 55.076H45.8458C45.8458 55.5328 45.9328 56.0605 46.2749 56.4882C46.6511 56.9585 47.1851 57.126 47.6858 57.126V55.126ZM47.8458 55.076V43.568H45.8458V55.076H47.8458ZM47.8458 43.568C47.8458 43.4564 47.8573 43.3934 47.8645 43.3663C47.8712 43.3411 47.8695 43.3641 47.8366 43.4052C47.8203 43.4256 47.7992 43.4467 47.7739 43.4657C47.7486 43.4846 47.7239 43.4979 47.7029 43.5067C47.6614 43.524 47.6482 43.518 47.6858 43.518V41.518C47.1851 41.518 46.6511 41.6855 46.2749 42.1558C45.9328 42.5835 45.8458 43.1112 45.8458 43.568H47.8458ZM47.6858 43.518H56.6318V41.518H47.6858V43.518ZM56.6318 43.518C56.7367 43.518 56.7912 43.5299 56.8097 43.5353C56.8249 43.5398 56.7982 43.5345 56.7586 43.4997C56.7396 43.483 56.7222 43.4633 56.7079 43.4423C56.6937 43.4214 56.6854 43.4036 56.681 43.392C56.6727 43.3702 56.6818 43.3803 56.6818 43.442H58.6818C58.6818 42.9443 58.5345 42.3983 58.0799 41.9983C57.6497 41.6197 57.1067 41.518 56.6318 41.518V43.518ZM56.6818 43.442C56.6818 43.4796 56.6758 43.4664 56.6931 43.4249C56.7018 43.4038 56.7152 43.3791 56.7341 43.3539C56.7531 43.3285 56.7741 43.3075 56.7946 43.2911C56.8357 43.2583 56.8587 43.2565 56.8335 43.2633C56.8064 43.2705 56.7434 43.282 56.6318 43.282V45.282C57.0886 45.282 57.6163 45.195 58.044 44.8529C58.5142 44.4766 58.6818 43.9427 58.6818 43.442H56.6818ZM56.6318 43.282H48.6098V45.282H56.6318V43.282ZM47.6098 44.282V47.6H49.6098V44.282H47.6098ZM48.6098 48.6H54.0488V46.6H48.6098V48.6ZM54.0488 48.6C54.1826 48.6 54.2655 48.6135 54.3099 48.6251C54.3527 48.6363 54.3436 48.6414 54.313 48.6173C54.2976 48.6052 54.2805 48.5887 54.2646 48.5679C54.2487 48.547 54.2377 48.5269 54.2307 48.5103C54.2168 48.4776 54.2248 48.4745 54.2248 48.524H56.2248C56.2248 47.989 56.0424 47.4327 55.5486 47.0447C55.1007 46.6928 54.5445 46.6 54.0488 46.6V48.6ZM54.2248 48.524C54.2248 48.5478 54.2208 48.5207 54.2451 48.4686C54.2719 48.4112 54.3131 48.3663 54.3495 48.3403C54.3798 48.3187 54.3838 48.3263 54.3317 48.3387C54.2791 48.3512 54.1885 48.364 54.0488 48.364V50.364C54.5296 50.364 55.0698 50.2836 55.512 49.9677C56.0162 49.6076 56.2248 49.0668 56.2248 48.524H54.2248ZM54.0488 48.364H48.6098V50.364H54.0488V48.364ZM47.6098 49.364V54.362H49.6098V49.364H47.6098ZM48.6098 55.362H56.6318V53.362H48.6098V55.362ZM56.6318 55.362C56.7367 55.362 56.7912 55.3739 56.8097 55.3793C56.8249 55.3838 56.7982 55.3785 56.7586 55.3437C56.7396 55.327 56.7222 55.3073 56.7079 55.2863C56.6937 55.2654 56.6854 55.2476 56.681 55.236C56.6727 55.2142 56.6818 55.2243 56.6818 55.286H58.6818C58.6818 54.7883 58.5345 54.2423 58.0799 53.8423C57.6497 53.4637 57.1067 53.362 56.6318 53.362V55.362ZM56.6818 55.286C56.6818 55.3236 56.6758 55.3104 56.6931 55.2689C56.7018 55.2478 56.7152 55.2231 56.7341 55.1979C56.7531 55.1725 56.7741 55.1515 56.7946 55.1351C56.8357 55.1023 56.8587 55.1005 56.8335 55.1073C56.8064 55.1145 56.7434 55.126 56.6318 55.126V57.126C57.0886 57.126 57.6163 57.039 58.044 56.6969C58.5142 56.3206 58.6818 55.7867 58.6818 55.286H56.6818ZM56.6318 55.126H47.6858V57.126H56.6318V55.126ZM70.2134 43.2005L70.763 42.3651L70.763 42.3651L70.2134 43.2005ZM70.3604 48.44L71.0247 49.1874L71.0252 49.187L70.3604 48.44ZM63.2204 49.364V48.364H62.2204V49.364H63.2204ZM63.2204 47.6H62.2204V48.6H63.2204V47.6ZM68.1974 47.5055L68.0716 46.5134L68.0698 46.5137L68.1974 47.5055ZM69.2894 47.0435L68.5623 46.3569L68.5618 46.3575L69.2894 47.0435ZM69.3629 44.807L68.5685 45.4145L68.5741 45.4217L68.5797 45.4289L69.3629 44.807ZM68.3654 44.3135L68.1802 45.2962L68.1802 45.2962L68.3654 44.3135ZM63.2204 44.177V43.177H62.2204V44.177H63.2204ZM62.3384 55.273C62.28 55.273 62.272 55.2647 62.2954 55.2733C62.3079 55.2778 62.3273 55.2865 62.3501 55.3015C62.3731 55.3166 62.3955 55.3355 62.4153 55.3572C62.4569 55.4027 62.4684 55.4393 62.4682 55.4385C62.4668 55.4339 62.4564 55.3951 62.4564 55.307H60.4564C60.4564 55.7618 60.5582 56.2894 60.9384 56.7058C61.3343 57.1394 61.8656 57.273 62.3384 57.273V55.273ZM62.4564 55.307V43.463H60.4564V55.307H62.4564ZM62.4564 43.463C62.4564 43.3514 62.4679 43.2884 62.4751 43.2613C62.4818 43.2361 62.4801 43.2591 62.4472 43.3002C62.4309 43.3206 62.4098 43.3417 62.3845 43.3607C62.3592 43.3796 62.3345 43.3929 62.3135 43.4017C62.272 43.419 62.2588 43.413 62.2964 43.413V41.413C61.7957 41.413 61.2617 41.5805 60.8855 42.0508C60.5434 42.4785 60.4564 43.0062 60.4564 43.463H62.4564ZM62.2964 43.413H66.3074V41.413H62.2964V43.413ZM66.3074 43.413C68.0655 43.413 69.1193 43.6778 69.6637 44.0359L70.763 42.3651C69.7114 41.6732 68.1612 41.413 66.3074 41.413V43.413ZM69.6637 44.0359C70.1102 44.3296 70.4104 44.8254 70.4104 45.773H72.4104C72.4104 44.3406 71.9126 43.1214 70.763 42.3651L69.6637 44.0359ZM70.4104 45.773C70.4104 46.7144 70.134 47.3028 69.6955 47.693L71.0252 49.187C71.9867 48.3312 72.4104 47.1416 72.4104 45.773H70.4104ZM69.696 47.6926C69.2526 48.0867 68.5142 48.364 67.3154 48.364V50.364C68.7905 50.364 70.0821 50.0253 71.0247 49.1874L69.696 47.6926ZM67.3154 48.364H63.2204V50.364H67.3154V48.364ZM62.2204 49.364V55.307H64.2204V49.364H62.2204ZM62.2204 55.307C62.2204 55.3951 62.2099 55.4339 62.2086 55.4385C62.2083 55.4393 62.2199 55.4027 62.2614 55.3572C62.2812 55.3355 62.3036 55.3166 62.3267 55.3015C62.3494 55.2865 62.3688 55.2778 62.3813 55.2733C62.4047 55.2647 62.3967 55.273 62.3384 55.273V57.273C62.8111 57.273 63.3425 57.1394 63.7383 56.7058C64.1185 56.2894 64.2204 55.7618 64.2204 55.307H62.2204ZM63.2204 48.6H66.3074V46.6H63.2204V48.6ZM66.3074 48.6C67.0993 48.6 67.7761 48.5679 68.3249 48.4973L68.0698 46.5137C67.6386 46.5691 67.0554 46.6 66.3074 46.6V48.6ZM68.3231 48.4976C68.9419 48.4191 69.5654 48.2084 70.0169 47.7295L68.5618 46.3575C68.5513 46.3686 68.4468 46.4659 68.0716 46.5134L68.3231 48.4976ZM70.0164 47.7301C70.5089 47.2086 70.6464 46.4991 70.6464 45.836H68.6464C68.6464 46.2789 68.5458 46.3744 68.5623 46.3569L70.0164 47.7301ZM70.6464 45.836C70.6464 45.2653 70.5284 44.6667 70.146 44.1851L68.5797 45.4289C68.5754 45.4233 68.6464 45.5107 68.6464 45.836H70.6464ZM70.1572 44.1995C69.7548 43.6734 69.1304 43.44 68.5505 43.3308L68.1802 45.2962C68.3593 45.3299 68.4706 45.3703 68.5335 45.4014C68.5943 45.4315 68.5903 45.443 68.5685 45.4145L70.1572 44.1995ZM68.5505 43.3308C67.9762 43.2226 67.2173 43.177 66.3074 43.177V45.177C67.1754 45.177 67.7885 45.2224 68.1802 45.2962L68.5505 43.3308ZM66.3074 43.177H63.2204V45.177H66.3074V43.177ZM62.2204 44.177V47.6H64.2204V44.177H62.2204Z" fill="#4E556D"/>
<path d="M60.8571 3L70.0958 17.6408V35.554H3V17.6787L12.9127 3H60.8571Z" stroke="#FBBF24" stroke-width="6"/>
<path d="M65.2024 19.1765H57.0156V28.4202H65.2024V19.1765Z" fill="#FBBF24"/>
<path d="M57.0149 9.93274H48.8281V19.1765H57.0149V9.93274Z" fill="#FBBF24"/>
<path d="M48.8274 19.1765H40.6406V28.4202H48.8274V19.1765Z" fill="#FBBF24"/>
<path d="M40.6418 9.93274H32.4551V19.1765H40.6418V9.93274Z" fill="#FBBF24"/>
<path d="M32.4543 19.1765H24.2676V28.4202H32.4543V19.1765Z" fill="#FBBF24"/>
<path d="M16.0813 19.1765H7.89453V28.4202H16.0813V19.1765Z" fill="#FBBF24"/>
<path d="M24.2668 9.93274H16.0801V19.1765H24.2668V9.93274Z" fill="#FBBF24"/>
</svg>
