<svg width="399" height="303" viewBox="0 0 399 303" fill="none" xmlns="http://www.w3.org/2000/svg">
<rect x="84" y="45" width="46" height="46" fill="black"/>
<rect x="38" y="91" width="46" height="46" fill="black"/>
<rect x="130" y="91" width="46" height="46" fill="black"/>
<rect x="176" y="45" width="46" height="46" fill="black"/>
<rect x="222" y="91" width="46" height="46" fill="black"/>
<rect x="268" y="45" width="46" height="46" fill="black"/>
<rect x="314" y="91" width="46" height="46" fill="black"/>
<path d="M335.589 10.5L387.5 83.358V172.5H10.5V83.5465L66.1979 10.5H335.589Z" stroke="black" stroke-width="21"/>
<path d="M64.4365 198.109V211.649H22.7217V198.109H64.4365ZM76.7666 198.109V282H59.4814V198.109H76.7666ZM20.5322 198.109H37.7598L35.6279 240.228C35.3206 246.527 34.7253 252.001 33.8418 256.648C32.9967 261.296 31.8444 265.253 30.3848 268.518C28.9251 271.744 27.1198 274.356 24.9688 276.354C22.8561 278.312 20.3594 279.753 17.4785 280.675C14.5977 281.558 11.3135 282 7.62598 282H3.3623V268.518L5.55176 268.345C7.43392 268.153 9.08561 267.653 10.5068 266.847C11.9281 266.04 13.138 264.83 14.1367 263.217C15.1738 261.604 16.0189 259.549 16.6719 257.052C17.3633 254.517 17.901 251.424 18.2852 247.775C18.7077 244.126 18.9958 239.863 19.1494 234.984L20.5322 198.109ZM108.456 254.805L142.162 198.109H159.447V282H142.162V225.305L108.456 282H91.1709V198.109H108.456V254.805ZM242.243 268.518V282H181.803V268.518H242.243ZM186.931 268.518V302.569H170.683L169.761 268.518H186.931ZM254.688 268.518L253.19 302.627H237.346V268.518H254.688ZM232.736 198.109V211.649H192.347V198.109H232.736ZM245.066 198.109V282H227.839V198.109H245.066ZM190.215 198.109H207.5L205.253 232.276C204.907 237.923 204.293 242.916 203.409 247.257C202.564 251.559 201.527 255.342 200.298 258.607C199.107 261.872 197.782 264.734 196.322 267.192C194.863 269.612 193.326 271.725 191.713 273.53C190.1 275.297 188.467 276.872 186.815 278.255C185.164 279.599 183.55 280.848 181.976 282H172.065V268.518H175.926C177.04 267.596 178.211 266.328 179.44 264.715C180.708 263.102 181.899 260.931 183.013 258.204C184.165 255.438 185.164 251.943 186.009 247.718C186.892 243.493 187.545 238.345 187.968 232.276L190.215 198.109ZM319.911 268.518V282H275.258V268.518H319.911ZM280.904 198.109V282H263.619V198.109H280.904ZM314.092 232.276V245.413H275.258V232.276H314.092ZM319.854 198.109V211.649H275.258V198.109H319.854ZM362.663 252.097H341.287V238.614H362.663C365.966 238.614 368.655 238.076 370.729 237.001C372.804 235.887 374.321 234.351 375.281 232.392C376.242 230.433 376.722 228.224 376.722 225.766C376.722 223.269 376.242 220.945 375.281 218.794C374.321 216.643 372.804 214.914 370.729 213.608C368.655 212.302 365.966 211.649 362.663 211.649H347.279V282H329.994V198.109H362.663C369.231 198.109 374.859 199.3 379.545 201.682C384.27 204.025 387.88 207.271 390.377 211.419C392.874 215.567 394.122 220.311 394.122 225.65C394.122 231.066 392.874 235.753 390.377 239.709C387.88 243.665 384.27 246.719 379.545 248.87C374.859 251.021 369.231 252.097 362.663 252.097Z" fill="black"/>
</svg>
