<svg width="230" height="291" viewBox="0 0 230 291" fill="none" xmlns="http://www.w3.org/2000/svg">
<path opacity="0.15" d="M114.924 58.683C106.937 58.683 100.098 55.8407 94.4061 50.1562C88.714 44.4716 85.8727 37.6463 85.8824 29.6801C85.8824 21.7043 88.7285 14.8741 94.4206 9.18958C100.113 3.50501 106.947 0.667566 114.924 0.677234C122.91 0.677234 129.749 3.51952 135.441 9.20408C141.134 14.8887 143.975 21.714 143.965 29.6801C143.965 37.6559 141.119 44.4861 135.427 50.1707C129.735 55.8552 122.9 58.6927 114.924 58.683ZM85.8824 290.706C81.7682 290.706 78.3172 289.314 75.5292 286.53C72.7412 283.745 71.3521 280.304 71.3618 276.205V98.9245C52.0009 93.849 36.0862 83.7609 23.6178 68.66C11.1494 53.5592 3.34698 36.3315 0.210512 16.9769C-0.515521 12.6264 0.636451 8.81738 3.66643 5.54972C6.69641 2.28206 10.6267 0.657898 15.4572 0.677234C18.8454 0.677234 21.8124 1.88569 24.3584 4.3026C26.9043 6.7195 28.4145 9.61979 28.8888 13.0035C31.5509 30.1635 39.0533 44.4861 51.3959 55.9712C63.7384 67.4564 78.8641 73.1941 96.7729 73.1845H133.075C140.335 73.1845 147.111 74.5138 153.404 77.1724C159.696 79.831 165.383 83.698 170.465 88.7735L226.007 144.242C228.669 146.9 230 150.284 230 154.393C230 158.501 228.669 161.885 226.007 164.544C223.345 167.202 219.957 168.531 215.842 168.531C211.728 168.531 208.34 167.202 205.678 164.544L158.486 117.414V276.205C158.486 280.313 157.092 283.76 154.304 286.544C151.516 289.328 148.07 290.716 143.965 290.706C139.851 290.706 136.4 289.314 133.612 286.53C130.824 283.745 129.435 280.304 129.444 276.205V203.697H100.403V276.205C100.403 280.313 99.0091 283.76 96.2211 286.544C93.4332 289.328 89.9869 290.716 85.8824 290.706Z" fill="#FBBF24"/>
</svg>
