<svg width="230" height="291" viewBox="0 0 230 291" fill="none" xmlns="http://www.w3.org/2000/svg">
<path opacity="0.15" d="M50.3125 127.384C36.4167 127.384 24.5573 121.2 14.7344 108.831C4.91146 96.4616 0 81.5282 0 64.0306C0 46.533 4.91146 31.5996 14.7344 19.2306C24.5573 6.86158 36.4167 0.677063 50.3125 0.677063C64.2083 0.677063 76.0677 6.86158 85.8906 19.2306C95.7135 31.5996 100.625 46.533 100.625 64.0306C100.625 81.5282 95.7135 96.4616 85.8906 108.831C76.0677 121.2 64.2083 127.384 50.3125 127.384ZM50.3125 91.1821C56.3021 91.1821 61.3956 88.5394 65.5931 83.2539C69.7906 77.9684 71.8846 71.5606 71.875 64.0306C71.875 56.4885 69.7763 50.0747 65.5788 44.7892C61.3813 39.5037 56.2925 36.867 50.3125 36.8791C44.3229 36.8791 39.2294 39.5218 35.0319 44.8073C30.8344 50.0928 28.7404 56.5006 28.75 64.0306C28.75 71.5727 30.8488 77.9865 35.0463 83.272C39.2438 88.5575 44.3325 91.1942 50.3125 91.1821ZM179.688 290.293C165.792 290.293 153.932 284.109 144.109 271.74C134.286 259.371 129.375 244.437 129.375 226.94C129.375 209.442 134.286 194.509 144.109 182.14C153.932 169.771 165.792 163.586 179.688 163.586C193.583 163.586 205.443 169.771 215.266 182.14C225.089 194.509 230 209.442 230 226.94C230 244.437 225.089 259.371 215.266 271.74C205.443 284.109 193.583 290.293 179.688 290.293ZM179.688 254.091C185.677 254.091 190.771 251.448 194.968 246.163C199.166 240.877 201.26 234.47 201.25 226.94C201.25 219.398 199.151 212.984 194.954 207.698C190.756 202.413 185.667 199.776 179.688 199.788C173.698 199.788 168.604 202.431 164.407 207.716C160.209 213.002 158.115 219.41 158.125 226.94C158.125 234.482 160.224 240.896 164.421 246.181C168.619 251.467 173.708 254.103 179.688 254.091ZM20.125 290.293L0 264.952L209.875 0.677063L230 26.0185L20.125 290.293Z" fill="#FBBF24"/>
</svg>
