<svg width="230" height="296" viewBox="0 0 230 296" fill="none" xmlns="http://www.w3.org/2000/svg">
<path opacity="0.15" d="M32.8571 296V246.78H0V213.966H32.8571V181.152H0V148.339H32.8571V0.677063H139.643C164.833 0.677063 186.19 9.42737 203.714 26.928C221.238 44.4286 230 65.7575 230 90.9146C230 116.072 221.238 137.401 203.714 154.901C186.19 172.402 164.833 181.152 139.643 181.152H65.7143V213.966H131.429V246.78H65.7143V296H32.8571ZM65.7143 148.339H139.643C155.524 148.339 169.077 142.733 180.304 131.522C191.53 120.31 197.143 106.775 197.143 90.9146C197.143 75.0547 191.53 61.5191 180.304 50.3077C169.077 39.0964 155.524 33.4907 139.643 33.4907H65.7143V148.339Z" fill="#FBBF24"/>
</svg>
